<svg width="32" height="33" viewBox="0 0 32 33" fill="none" xmlns="http://www.w3.org/2000/svg">
<path d="M16 3.5C13.4288 3.5 10.9154 4.26244 8.77759 5.6909C6.63975 7.11935 4.97351 9.14968 3.98957 11.5251C3.00563 13.9006 2.74819 16.5144 3.2498 19.0362C3.75141 21.5579 4.98953 23.8743 6.80762 25.6924C8.6257 27.5105 10.9421 28.7486 13.4638 29.2502C15.9856 29.7518 18.5995 29.4944 20.9749 28.5104C23.3503 27.5265 25.3807 25.8603 26.8091 23.7224C28.2376 21.5846 29 19.0712 29 16.5C28.9964 13.0533 27.6256 9.74882 25.1884 7.31163C22.7512 4.87445 19.4467 3.50364 16 3.5ZM21 20.5C21 20.7652 20.8946 21.0196 20.7071 21.2071C20.5196 21.3946 20.2652 21.5 20 21.5H14C13.7348 21.5 13.4804 21.3946 13.2929 21.2071C13.1054 21.0196 13 20.7652 13 20.5C13 20.2348 13.1054 19.9804 13.2929 19.7929C13.4804 19.6054 13.7348 19.5 14 19.5H17.5863L11.2925 13.2075C11.1049 13.0199 10.9994 12.7654 10.9994 12.5C10.9994 12.2346 11.1049 11.9801 11.2925 11.7925C11.4801 11.6049 11.7346 11.4994 12 11.4994C12.2654 11.4994 12.5199 11.6049 12.7075 11.7925L19 18.0863V14.5C19 14.2348 19.1054 13.9804 19.2929 13.7929C19.4804 13.6054 19.7348 13.5 20 13.5C20.2652 13.5 20.5196 13.6054 20.7071 13.7929C20.8946 13.9804 21 14.2348 21 14.5V20.5Z" fill="white"/>
</svg>
